<?xml version="1.0" encoding="utf-8"?>
<!-- Generator: Adobe Illustrator 26.1.0, SVG Export Plug-In . SVG Version: 6.00 Build 0)  -->
<svg version="1.1" id="a" xmlns="http://www.w3.org/2000/svg" xmlns:xlink="http://www.w3.org/1999/xlink" x="0px" y="0px"
	 viewBox="0 0 2041.1 350" style="enable-background:new 0 0 2041.1 350;" xml:space="preserve">
<style type="text/css">
	.st0{fill:#FFFFFF;}
	.st1{fill:#FF5F05;}
</style>
<g>
	<g>
		<rect x="430.6" y="47.2" class="st0" width="56.2" height="255.7"/>
		<polygon class="st0" points="609.9,47.2 553.7,47.2 553.7,302.9 737.4,302.9 737.4,251.7 609.9,251.7 		"/>
		<polygon class="st0" points="834.8,47.2 778.6,47.2 778.6,302.9 962.3,302.9 962.3,251.7 834.8,251.7 		"/>
		<rect x="1004.7" y="47.2" class="st0" width="56.2" height="255.7"/>
		<polygon class="st0" points="1299.4,204.6 1179.7,47.2 1127.8,47.2 1127.8,302.9 1183.3,302.9 1183.3,140.3 1307.1,302.9 
			1355,302.9 1355,47.2 1299.4,47.2 		"/>
		<path class="st0" d="M1544.4,42.8c-78.9,0-136.2,59.5-136.2,132.2v0.7c0,72.7,56.6,131.5,135.5,131.5s136.2-59.5,136.2-132.2v-0.7
			C1679.9,101.6,1623.3,42.8,1544.4,42.8z M1621.1,175.8c0,43.8-31.4,79.6-76.7,79.6s-77.4-36.5-77.4-80.4v-0.7
			c0-43.8,31.4-79.6,76.7-79.6s77.4,36.5,77.4,80.3L1621.1,175.8L1621.1,175.8z"/>
		<rect x="1734.3" y="47.2" class="st0" width="56.3" height="255.7"/>
		<path class="st0" d="M1960.1,149.8c-44.2-11.3-55.2-16.8-55.2-33.6v-0.7c0-12.4,11.3-22.3,32.9-22.3s43.8,9.5,66.5,25.2l29.2-42.4
			c-25.9-20.8-57.7-32.5-95-32.5c-52.2,0-89.5,30.7-89.5,77.1v0.7c0,50.8,33.2,65,84.7,78.2c42.7,11,51.5,18.3,51.5,32.5v0.7
			c0,15-13.9,24.1-36.9,24.1c-29.2,0-53.3-12.1-76.3-31.1l-33.2,39.8c30.7,27.4,69.8,40.9,108.5,40.9c55.1,0,93.9-28.5,93.9-79.2
			v-0.7C2041.2,182,2011.9,163.4,1960.1,149.8L1960.1,149.8z"/>
	</g>
	<path class="st0" d="M188.4,255.8V94.2h53.9V0H-0.1v94.2h53.8v161.5H-0.1V350h242.3v-94.2L188.4,255.8L188.4,255.8z M228.7,336.5
		H13.3v-67.3h40.4c7.4,0,13.5-6,13.5-13.5V94.2c0-7.4-6-13.5-13.5-13.5H13.3V13.5h215.4v67.3h-40.4c-7.4,0-13.5,6-13.5,13.5v161.5
		c0,7.4,6,13.5,13.5,13.5h40.4L228.7,336.5L228.7,336.5z"/>
</g>
<path class="st1" d="M188.4,80.8h40.4V13.5H13.3v67.3h40.4c7.4,0,13.5,6,13.5,13.5v161.5c0,7.4-6,13.5-13.5,13.5H13.3v67.3h215.4
	v-67.3h-40.4c-7.4,0-13.5-6-13.5-13.5V94.2C174.9,86.8,180.9,80.8,188.4,80.8"/>
</svg>
